<svg xmlns="http://www.w3.org/2000/svg" xmlns:xlink="http://www.w3.org/1999/xlink" width="500" zoomAndPan="magnify" viewBox="0 0 375 374.999991" height="500" preserveAspectRatio="xMidYMid meet" version="1.0"><defs><g/><clipPath id="4bbc0813c4"><path d="M 47 119.898438 L 114.503906 119.898438 L 114.503906 188 L 47 188 Z M 47 119.898438 " clip-rule="nonzero"/></clipPath><clipPath id="871bce5b80"><path d="M 24.503906 156 L 96 156 L 96 226.398438 L 24.503906 226.398438 Z M 24.503906 156 " clip-rule="nonzero"/></clipPath><clipPath id="13a66b98ac"><path d="M 24.503906 156 L 89 156 L 89 226.398438 L 24.503906 226.398438 Z M 24.503906 156 " clip-rule="nonzero"/></clipPath></defs><rect x="-37.5" width="450" fill="#ffffff" y="-37.499999" height="449.999989" fill-opacity="1"/><rect x="-37.5" width="450" fill="#ffffff" y="-37.499999" height="449.999989" fill-opacity="1"/><g clip-path="url(#4bbc0813c4)"><path fill="#f7b731" d="M 114.441406 137.492188 L 114.441406 187.875 L 95.910156 187.875 C 95.910156 184.214844 95.304688 181.160156 94.117188 178.664062 C 92.925781 176.164062 91.335938 174.121094 89.386719 172.480469 C 87.417969 170.863281 85.269531 169.5 82.941406 168.441406 C 80.742188 167.429688 78.542969 166.546875 76.320312 165.789062 C 76.191406 165.738281 76.039062 165.6875 75.914062 165.636719 C 73.5625 164.828125 71.390625 164.046875 69.417969 163.238281 C 67.445312 162.433594 65.878906 161.496094 64.691406 160.414062 C 63.5 159.328125 62.894531 157.863281 62.894531 156.070312 C 62.894531 154.152344 63.703125 152.664062 65.296875 151.628906 C 66.890625 150.59375 69.0625 150.089844 71.792969 150.089844 C 74.523438 150.089844 76.949219 150.617188 79.125 151.679688 C 81.296875 152.738281 83.421875 154.378906 85.570312 156.550781 L 95.757812 146.476562 C 93.105469 143.5 89.71875 141.125 85.621094 139.410156 C 81.527344 137.695312 77.027344 136.808594 72.097656 136.808594 C 67.242188 136.808594 62.945312 137.617188 59.230469 139.257812 C 55.511719 140.875 52.605469 143.273438 50.507812 146.378906 C 49.042969 148.574219 48.082031 151.046875 47.652344 153.824219 C 47.601562 154.203125 47.550781 154.605469 47.5 155.011719 C 47.449219 155.441406 47.421875 155.867188 47.398438 156.324219 L 47.398438 119.898438 L 96.871094 119.898438 C 106.554688 119.898438 114.441406 127.773438 114.441406 137.492188 Z M 114.441406 137.492188 " fill-opacity="1" fill-rule="nonzero"/></g><g clip-path="url(#871bce5b80)"><path fill="#45aaf2" d="M 95.910156 187.875 L 95.910156 226.371094 L 42.191406 226.371094 C 32.457031 226.371094 24.570312 218.496094 24.570312 208.777344 L 24.570312 156.398438 L 47.347656 156.398438 C 47.320312 156.800781 47.320312 157.207031 47.320312 157.609375 C 47.320312 161.195312 47.929688 164.171875 49.117188 166.519531 C 50.304688 168.867188 51.898438 170.835938 53.84375 172.402344 C 55.816406 173.96875 57.941406 175.253906 60.289062 176.289062 C 62.617188 177.324219 64.96875 178.234375 67.320312 179.042969 C 69.667969 179.847656 71.84375 180.65625 73.816406 181.539062 C 75.789062 182.398438 77.355469 183.433594 78.542969 184.621094 C 79.730469 185.808594 80.339844 187.371094 80.339844 189.289062 C 80.339844 191.410156 79.429688 193.078125 77.582031 194.261719 C 75.761719 195.449219 73.183594 196.054688 69.847656 196.054688 C 66.179688 196.054688 62.96875 195.347656 60.214844 193.910156 C 57.460938 192.472656 54.929688 190.476562 52.679688 187.875 L 42.519531 197.949219 C 45.980469 201.8125 49.773438 204.664062 53.945312 206.554688 C 58.089844 208.449219 63.070312 209.382812 68.859375 209.382812 C 77.304688 209.382812 83.929688 207.464844 88.707031 203.652344 C 93.507812 199.84375 95.910156 194.589844 95.910156 187.875 Z M 95.910156 187.875 " fill-opacity="1" fill-rule="nonzero"/></g><path fill="#45aaf2" d="M 47.601562 153.898438 C 47.550781 154.277344 47.5 154.683594 47.449219 155.085938 C 47.398438 154.984375 47.371094 154.910156 47.347656 154.832031 C 47.273438 154.605469 47.273438 154.40625 47.347656 154.253906 C 47.398438 154.101562 47.472656 153.976562 47.601562 153.898438 Z M 47.601562 153.898438 " fill-opacity="1" fill-rule="nonzero"/><path fill="#e09717" d="M 85.519531 156.601562 L 76.292969 165.8125 C 76.167969 165.765625 76.015625 165.714844 75.890625 165.664062 C 73.539062 164.855469 71.363281 164.074219 69.390625 163.265625 C 67.421875 162.457031 65.851562 161.523438 64.664062 160.4375 C 63.476562 159.351562 62.871094 157.886719 62.871094 156.097656 C 62.871094 154.175781 63.679688 152.6875 65.269531 151.652344 C 66.863281 150.617188 69.039062 150.113281 71.769531 150.113281 C 74.5 150.113281 76.925781 150.644531 79.097656 151.703125 C 81.25 152.789062 83.398438 154.40625 85.519531 156.601562 Z M 85.519531 156.601562 " fill-opacity="1" fill-rule="nonzero"/><g clip-path="url(#13a66b98ac)"><path fill="#3a84ef" d="M 88.730469 203.679688 L 65.980469 226.398438 L 42.191406 226.398438 C 32.457031 226.371094 24.570312 218.496094 24.570312 208.777344 L 24.570312 179.117188 L 47.347656 156.375 C 47.320312 156.777344 47.320312 157.179688 47.320312 157.585938 C 47.320312 161.167969 47.929688 164.148438 49.117188 166.496094 C 50.304688 168.84375 51.898438 170.8125 53.84375 172.378906 C 55.816406 173.941406 57.941406 175.230469 60.289062 176.265625 C 62.617188 177.300781 64.96875 178.207031 67.320312 179.015625 C 69.667969 179.824219 71.84375 180.632812 73.816406 181.515625 C 75.789062 182.375 77.355469 183.410156 78.542969 184.59375 C 79.730469 185.78125 80.339844 187.347656 80.339844 189.265625 C 80.339844 191.386719 79.429688 193.050781 77.582031 194.238281 C 75.761719 195.425781 73.183594 196.03125 69.847656 196.03125 C 66.179688 196.03125 62.96875 195.324219 60.214844 193.882812 C 57.460938 192.445312 54.929688 190.453125 52.679688 187.851562 L 42.519531 197.949219 C 45.980469 201.8125 49.773438 204.664062 53.945312 206.554688 C 58.089844 208.449219 63.070312 209.382812 68.859375 209.382812 C 77.304688 209.382812 83.929688 207.492188 88.730469 203.679688 Z M 88.730469 203.679688 " fill-opacity="1" fill-rule="nonzero"/></g><g fill="#f7b731" fill-opacity="1"><g transform="translate(119.82669, 187.98337)"><g><path d="M 11.953125 -14.453125 C 11.953125 -12.253906 12.601562 -10.488281 13.90625 -9.15625 C 15.207031 -7.820312 16.859375 -7.15625 18.859375 -7.15625 C 20.828125 -7.15625 22.414062 -7.8125 23.625 -9.125 C 24.84375 -10.445312 25.453125 -12.222656 25.453125 -14.453125 L 25.453125 -35.0625 L 34.609375 -35.0625 L 34.609375 -14.453125 C 34.609375 -11.421875 33.96875 -8.757812 32.6875 -6.46875 C 31.40625 -4.1875 29.570312 -2.425781 27.1875 -1.1875 C 24.800781 0.0390625 22.007812 0.65625 18.8125 0.65625 C 15.601562 0.65625 12.789062 0.0390625 10.375 -1.1875 C 7.957031 -2.425781 6.085938 -4.1875 4.765625 -6.46875 C 3.453125 -8.757812 2.796875 -11.421875 2.796875 -14.453125 L 2.796875 -35.0625 L 11.953125 -35.0625 Z M 11.953125 -14.453125 "/></g></g></g><g fill="#f7b731" fill-opacity="1"><g transform="translate(159.774777, 187.98337)"><g><path d="M 18.8125 -35.0625 C 23.28125 -35.0625 26.742188 -33.984375 29.203125 -31.828125 C 31.671875 -29.679688 32.90625 -26.65625 32.90625 -22.75 C 32.90625 -18.625 31.671875 -15.414062 29.203125 -13.125 C 26.742188 -10.84375 23.28125 -9.703125 18.8125 -9.703125 L 12.546875 -9.703125 L 12.546875 0 L 3.40625 0 L 3.40625 -35.0625 Z M 18.359375 -17 C 20.222656 -17 21.660156 -17.46875 22.671875 -18.40625 C 23.691406 -19.34375 24.203125 -20.691406 24.203125 -22.453125 C 24.203125 -24.160156 23.691406 -25.472656 22.671875 -26.390625 C 21.660156 -27.304688 20.222656 -27.765625 18.359375 -27.765625 L 12.546875 -27.765625 L 12.546875 -17 Z M 18.359375 -17 "/></g></g></g><g fill="#f7b731" fill-opacity="1"><g transform="translate(196.273117, 187.98337)"><g><path d="M 3.40625 0 L 3.40625 -35.0625 L 31.0625 -35.0625 L 31.0625 -27.765625 L 12.546875 -27.765625 L 12.546875 -21.203125 L 29.265625 -21.203125 L 29.265625 -13.953125 L 12.546875 -13.90625 L 12.546875 -7.296875 L 31.5625 -7.296875 L 31.5625 0 Z M 3.40625 0 "/></g></g></g><g fill="#f7b731" fill-opacity="1"><g transform="translate(232.521479, 187.98337)"><g><path d="M 34.8125 0 L 24.453125 0 L 19.359375 -9.703125 L 12.546875 -9.703125 L 12.546875 0 L 3.40625 0 L 3.40625 -35.0625 L 19.15625 -35.0625 C 23.789062 -35.0625 27.382812 -33.984375 29.9375 -31.828125 C 32.488281 -29.679688 33.765625 -26.65625 33.765625 -22.75 C 33.765625 -20.125 33.226562 -17.847656 32.15625 -15.921875 C 31.09375 -14.003906 29.546875 -12.515625 27.515625 -11.453125 Z M 12.546875 -27.765625 L 12.546875 -17 L 19.203125 -17 C 21.066406 -17 22.507812 -17.46875 23.53125 -18.40625 C 24.550781 -19.34375 25.0625 -20.691406 25.0625 -22.453125 C 25.0625 -24.160156 24.550781 -25.472656 23.53125 -26.390625 C 22.507812 -27.304688 21.066406 -27.765625 19.203125 -27.765625 Z M 12.546875 -27.765625 "/></g></g></g><g fill="#f7b731" fill-opacity="1"><g transform="translate(271.219661, 187.98337)"><g><path d="M 0.34375 -27.515625 L 0.34375 -35.0625 L 30.40625 -35.0625 L 30.40625 -27.515625 L 19.90625 -27.515625 L 19.90625 0 L 10.75 0 L 10.75 -27.515625 Z M 0.34375 -27.515625 "/></g></g></g><g fill="#f7b731" fill-opacity="1"><g transform="translate(304.418265, 187.98337)"><g><path d="M 3.40625 0 L 3.40625 -35.0625 L 12.546875 -35.0625 L 12.546875 0 Z M 3.40625 0 "/></g></g></g><g fill="#f7b731" fill-opacity="1"><g transform="translate(322.868013, 187.98337)"><g><path d="M 3.40625 0 L 3.40625 -35.0625 L 13.359375 -35.0625 L 23.5 -14.546875 L 33.609375 -35.0625 L 43.5625 -35.0625 L 43.5625 0 L 35.46875 0 L 35.40625 -22.203125 L 26.453125 -3.5 L 20.5625 -3.5 L 11.546875 -22.203125 L 11.546875 0 Z M 3.40625 0 "/></g></g></g><g fill="#45aaf2" fill-opacity="1"><g transform="translate(121.449657, 218.548471)"><g><path d="M 9.65625 -3.0625 L 3.65625 -3.0625 L 2.546875 0 L 0.65625 0 L 5.625 -13.6875 L 7.703125 -13.6875 L 12.65625 0 L 10.765625 0 Z M 9.140625 -4.515625 L 6.65625 -11.46875 L 4.171875 -4.515625 Z M 9.140625 -4.515625 "/></g></g></g><g fill="#45aaf2" fill-opacity="1"><g transform="translate(138.703384, 218.548471)"><g><path d="M 3.3125 -1.46875 L 8.140625 -1.46875 L 8.140625 0 L 1.515625 0 L 1.515625 -13.765625 L 3.3125 -13.765625 Z M 3.3125 -1.46875 "/></g></g></g><g fill="#45aaf2" fill-opacity="1"><g transform="translate(151.180394, 218.548471)"><g><path d="M 3.3125 -1.46875 L 8.140625 -1.46875 L 8.140625 0 L 1.515625 0 L 1.515625 -13.765625 L 3.3125 -13.765625 Z M 3.3125 -1.46875 "/></g></g></g><g fill="#45aaf2" fill-opacity="1"><g transform="translate(163.657402, 218.548471)"><g/></g></g><g fill="#45aaf2" fill-opacity="1"><g transform="translate(172.877559, 218.548471)"><g><path d="M 9.65625 -3.0625 L 3.65625 -3.0625 L 2.546875 0 L 0.65625 0 L 5.625 -13.6875 L 7.703125 -13.6875 L 12.65625 0 L 10.765625 0 Z M 9.140625 -4.515625 L 6.65625 -11.46875 L 4.171875 -4.515625 Z M 9.140625 -4.515625 "/></g></g></g><g fill="#45aaf2" fill-opacity="1"><g transform="translate(190.131289, 218.548471)"><g><path d="M 8.40625 -7.09375 C 8.90625 -7.007812 9.363281 -6.800781 9.78125 -6.46875 C 10.195312 -6.144531 10.523438 -5.738281 10.765625 -5.25 C 11.015625 -4.757812 11.140625 -4.238281 11.140625 -3.6875 C 11.140625 -2.988281 10.960938 -2.359375 10.609375 -1.796875 C 10.253906 -1.242188 9.734375 -0.804688 9.046875 -0.484375 C 8.367188 -0.160156 7.570312 0 6.65625 0 L 1.515625 0 L 1.515625 -13.765625 L 6.453125 -13.765625 C 7.390625 -13.765625 8.1875 -13.609375 8.84375 -13.296875 C 9.5 -12.992188 9.992188 -12.578125 10.328125 -12.046875 C 10.660156 -11.515625 10.828125 -10.921875 10.828125 -10.265625 C 10.828125 -9.453125 10.601562 -8.78125 10.15625 -8.25 C 9.71875 -7.71875 9.132812 -7.332031 8.40625 -7.09375 Z M 3.3125 -7.828125 L 6.34375 -7.828125 C 7.1875 -7.828125 7.835938 -8.019531 8.296875 -8.40625 C 8.753906 -8.800781 8.984375 -9.347656 8.984375 -10.046875 C 8.984375 -10.742188 8.753906 -11.289062 8.296875 -11.6875 C 7.835938 -12.082031 7.171875 -12.28125 6.296875 -12.28125 L 3.3125 -12.28125 Z M 6.5 -1.484375 C 7.394531 -1.484375 8.09375 -1.691406 8.59375 -2.109375 C 9.09375 -2.535156 9.34375 -3.125 9.34375 -3.875 C 9.34375 -4.632812 9.078125 -5.234375 8.546875 -5.671875 C 8.023438 -6.117188 7.320312 -6.34375 6.4375 -6.34375 L 3.3125 -6.34375 L 3.3125 -1.484375 Z M 6.5 -1.484375 "/></g></g></g><g fill="#45aaf2" fill-opacity="1"><g transform="translate(206.18097, 218.548471)"><g><path d="M 7.765625 0.140625 C 6.484375 0.140625 5.316406 -0.15625 4.265625 -0.75 C 3.210938 -1.351562 2.378906 -2.191406 1.765625 -3.265625 C 1.148438 -4.335938 0.84375 -5.546875 0.84375 -6.890625 C 0.84375 -8.234375 1.148438 -9.441406 1.765625 -10.515625 C 2.378906 -11.585938 3.210938 -12.421875 4.265625 -13.015625 C 5.316406 -13.617188 6.484375 -13.921875 7.765625 -13.921875 C 9.054688 -13.921875 10.226562 -13.617188 11.28125 -13.015625 C 12.332031 -12.421875 13.160156 -11.585938 13.765625 -10.515625 C 14.367188 -9.453125 14.671875 -8.242188 14.671875 -6.890625 C 14.671875 -5.535156 14.367188 -4.320312 13.765625 -3.25 C 13.160156 -2.1875 12.332031 -1.351562 11.28125 -0.75 C 10.226562 -0.15625 9.054688 0.140625 7.765625 0.140625 Z M 7.765625 -1.421875 C 8.722656 -1.421875 9.585938 -1.644531 10.359375 -2.09375 C 11.128906 -2.539062 11.734375 -3.175781 12.171875 -4 C 12.617188 -4.832031 12.84375 -5.796875 12.84375 -6.890625 C 12.84375 -7.992188 12.617188 -8.957031 12.171875 -9.78125 C 11.734375 -10.601562 11.128906 -11.238281 10.359375 -11.6875 C 9.597656 -12.132812 8.734375 -12.359375 7.765625 -12.359375 C 6.785156 -12.359375 5.914062 -12.132812 5.15625 -11.6875 C 4.394531 -11.238281 3.789062 -10.601562 3.34375 -9.78125 C 2.90625 -8.957031 2.6875 -7.992188 2.6875 -6.890625 C 2.6875 -5.796875 2.90625 -4.832031 3.34375 -4 C 3.789062 -3.175781 4.394531 -2.539062 5.15625 -2.09375 C 5.925781 -1.644531 6.796875 -1.421875 7.765625 -1.421875 Z M 7.765625 -1.421875 "/></g></g></g><g fill="#45aaf2" fill-opacity="1"><g transform="translate(225.645404, 218.548471)"><g><path d="M 3.28125 -13.765625 L 3.28125 -5.0625 C 3.28125 -3.832031 3.578125 -2.921875 4.171875 -2.328125 C 4.773438 -1.734375 5.609375 -1.4375 6.671875 -1.4375 C 7.722656 -1.4375 8.546875 -1.734375 9.140625 -2.328125 C 9.742188 -2.921875 10.046875 -3.832031 10.046875 -5.0625 L 10.046875 -13.765625 L 11.84375 -13.765625 L 11.84375 -5.078125 C 11.84375 -3.929688 11.613281 -2.960938 11.15625 -2.171875 C 10.695312 -1.390625 10.078125 -0.804688 9.296875 -0.421875 C 8.515625 -0.046875 7.632812 0.140625 6.65625 0.140625 C 5.675781 0.140625 4.796875 -0.046875 4.015625 -0.421875 C 3.234375 -0.804688 2.613281 -1.390625 2.15625 -2.171875 C 1.707031 -2.960938 1.484375 -3.929688 1.484375 -5.078125 L 1.484375 -13.765625 Z M 3.28125 -13.765625 "/></g></g></g><g fill="#45aaf2" fill-opacity="1"><g transform="translate(242.918872, 218.548471)"><g><path d="M 10 -13.765625 L 10 -12.296875 L 6.234375 -12.296875 L 6.234375 0 L 4.4375 0 L 4.4375 -12.296875 L 0.671875 -12.296875 L 0.671875 -13.765625 Z M 10 -13.765625 "/></g></g></g><g fill="#45aaf2" fill-opacity="1"><g transform="translate(257.547374, 218.548471)"><g/></g></g><g fill="#45aaf2" fill-opacity="1"><g transform="translate(266.767531, 218.548471)"><g><path d="M 11.953125 -9.78125 C 11.566406 -10.582031 11.007812 -11.203125 10.28125 -11.640625 C 9.5625 -12.078125 8.722656 -12.296875 7.765625 -12.296875 C 6.796875 -12.296875 5.925781 -12.078125 5.15625 -11.640625 C 4.394531 -11.203125 3.789062 -10.570312 3.34375 -9.75 C 2.90625 -8.925781 2.6875 -7.972656 2.6875 -6.890625 C 2.6875 -5.804688 2.90625 -4.859375 3.34375 -4.046875 C 3.789062 -3.234375 4.394531 -2.601562 5.15625 -2.15625 C 5.925781 -1.71875 6.796875 -1.5 7.765625 -1.5 C 9.109375 -1.5 10.210938 -1.898438 11.078125 -2.703125 C 11.953125 -3.503906 12.457031 -4.59375 12.59375 -5.96875 L 7.109375 -5.96875 L 7.109375 -7.421875 L 14.515625 -7.421875 L 14.515625 -6.046875 C 14.410156 -4.910156 14.054688 -3.867188 13.453125 -2.921875 C 12.847656 -1.984375 12.050781 -1.238281 11.0625 -0.6875 C 10.070312 -0.144531 8.972656 0.125 7.765625 0.125 C 6.484375 0.125 5.316406 -0.171875 4.265625 -0.765625 C 3.210938 -1.367188 2.378906 -2.203125 1.765625 -3.265625 C 1.148438 -4.335938 0.84375 -5.546875 0.84375 -6.890625 C 0.84375 -8.234375 1.148438 -9.441406 1.765625 -10.515625 C 2.378906 -11.585938 3.210938 -12.421875 4.265625 -13.015625 C 5.316406 -13.617188 6.484375 -13.921875 7.765625 -13.921875 C 9.222656 -13.921875 10.515625 -13.554688 11.640625 -12.828125 C 12.765625 -12.109375 13.585938 -11.09375 14.109375 -9.78125 Z M 11.953125 -9.78125 "/></g></g></g><g fill="#45aaf2" fill-opacity="1"><g transform="translate(286.074059, 218.548471)"><g><path d="M 7.765625 0.140625 C 6.484375 0.140625 5.316406 -0.15625 4.265625 -0.75 C 3.210938 -1.351562 2.378906 -2.191406 1.765625 -3.265625 C 1.148438 -4.335938 0.84375 -5.546875 0.84375 -6.890625 C 0.84375 -8.234375 1.148438 -9.441406 1.765625 -10.515625 C 2.378906 -11.585938 3.210938 -12.421875 4.265625 -13.015625 C 5.316406 -13.617188 6.484375 -13.921875 7.765625 -13.921875 C 9.054688 -13.921875 10.226562 -13.617188 11.28125 -13.015625 C 12.332031 -12.421875 13.160156 -11.585938 13.765625 -10.515625 C 14.367188 -9.453125 14.671875 -8.242188 14.671875 -6.890625 C 14.671875 -5.535156 14.367188 -4.320312 13.765625 -3.25 C 13.160156 -2.1875 12.332031 -1.351562 11.28125 -0.75 C 10.226562 -0.15625 9.054688 0.140625 7.765625 0.140625 Z M 7.765625 -1.421875 C 8.722656 -1.421875 9.585938 -1.644531 10.359375 -2.09375 C 11.128906 -2.539062 11.734375 -3.175781 12.171875 -4 C 12.617188 -4.832031 12.84375 -5.796875 12.84375 -6.890625 C 12.84375 -7.992188 12.617188 -8.957031 12.171875 -9.78125 C 11.734375 -10.601562 11.128906 -11.238281 10.359375 -11.6875 C 9.597656 -12.132812 8.734375 -12.359375 7.765625 -12.359375 C 6.785156 -12.359375 5.914062 -12.132812 5.15625 -11.6875 C 4.394531 -11.238281 3.789062 -10.601562 3.34375 -9.78125 C 2.90625 -8.957031 2.6875 -7.992188 2.6875 -6.890625 C 2.6875 -5.796875 2.90625 -4.832031 3.34375 -4 C 3.789062 -3.175781 4.394531 -2.539062 5.15625 -2.09375 C 5.925781 -1.644531 6.796875 -1.421875 7.765625 -1.421875 Z M 7.765625 -1.421875 "/></g></g></g><g fill="#45aaf2" fill-opacity="1"><g transform="translate(305.538483, 218.548471)"><g><path d="M 9.65625 -3.0625 L 3.65625 -3.0625 L 2.546875 0 L 0.65625 0 L 5.625 -13.6875 L 7.703125 -13.6875 L 12.65625 0 L 10.765625 0 Z M 9.140625 -4.515625 L 6.65625 -11.46875 L 4.171875 -4.515625 Z M 9.140625 -4.515625 "/></g></g></g><g fill="#45aaf2" fill-opacity="1"><g transform="translate(322.792212, 218.548471)"><g><path d="M 3.3125 -1.46875 L 8.140625 -1.46875 L 8.140625 0 L 1.515625 0 L 1.515625 -13.765625 L 3.3125 -13.765625 Z M 3.3125 -1.46875 "/></g></g></g><g fill="#45aaf2" fill-opacity="1"><g transform="translate(335.269225, 218.548471)"><g><path d="M 5.890625 0.140625 C 4.972656 0.140625 4.15625 -0.0195312 3.4375 -0.34375 C 2.726562 -0.664062 2.164062 -1.113281 1.75 -1.6875 C 1.34375 -2.257812 1.132812 -2.921875 1.125 -3.671875 L 3.046875 -3.671875 C 3.109375 -3.023438 3.375 -2.476562 3.84375 -2.03125 C 4.3125 -1.59375 4.992188 -1.375 5.890625 -1.375 C 6.742188 -1.375 7.414062 -1.585938 7.90625 -2.015625 C 8.40625 -2.453125 8.65625 -3.003906 8.65625 -3.671875 C 8.65625 -4.203125 8.507812 -4.628906 8.21875 -4.953125 C 7.925781 -5.285156 7.5625 -5.535156 7.125 -5.703125 C 6.695312 -5.878906 6.113281 -6.066406 5.375 -6.265625 C 4.46875 -6.492188 3.738281 -6.726562 3.1875 -6.96875 C 2.644531 -7.207031 2.175781 -7.578125 1.78125 -8.078125 C 1.394531 -8.585938 1.203125 -9.269531 1.203125 -10.125 C 1.203125 -10.875 1.390625 -11.539062 1.765625 -12.125 C 2.148438 -12.707031 2.6875 -13.15625 3.375 -13.46875 C 4.070312 -13.78125 4.867188 -13.9375 5.765625 -13.9375 C 7.054688 -13.9375 8.113281 -13.613281 8.9375 -12.96875 C 9.757812 -12.332031 10.222656 -11.476562 10.328125 -10.40625 L 8.359375 -10.40625 C 8.285156 -10.9375 8.003906 -11.398438 7.515625 -11.796875 C 7.035156 -12.203125 6.394531 -12.40625 5.59375 -12.40625 C 4.84375 -12.40625 4.226562 -12.207031 3.75 -11.8125 C 3.28125 -11.425781 3.046875 -10.882812 3.046875 -10.1875 C 3.046875 -9.6875 3.1875 -9.28125 3.46875 -8.96875 C 3.75 -8.65625 4.097656 -8.414062 4.515625 -8.25 C 4.929688 -8.082031 5.515625 -7.894531 6.265625 -7.6875 C 7.171875 -7.4375 7.898438 -7.1875 8.453125 -6.9375 C 9.003906 -6.695312 9.476562 -6.320312 9.875 -5.8125 C 10.269531 -5.3125 10.46875 -4.625 10.46875 -3.75 C 10.46875 -3.082031 10.289062 -2.453125 9.9375 -1.859375 C 9.582031 -1.265625 9.054688 -0.78125 8.359375 -0.40625 C 7.660156 -0.0390625 6.835938 0.140625 5.890625 0.140625 Z M 5.890625 0.140625 "/></g></g></g></svg>